<?xml version="1.0" standalone="no"?>
<!DOCTYPE svg PUBLIC "-//W3C//DTD SVG 20010904//EN"
 "http://www.w3.org/TR/2001/REC-SVG-20010904/DTD/svg10.dtd">
<svg version="1.0" xmlns="http://www.w3.org/2000/svg"
 width="700.000000pt" height="700.000000pt" viewBox="0 0 700.000000 700.000000"
 preserveAspectRatio="xMidYMid meet">
<metadata>
Created by potrace 1.11, written by Peter Selinger 2001-2013
</metadata>
<g transform="translate(0.000000,700.000000) scale(0.100000,-0.100000)"
fill="#000000" stroke="none">
<path d="M422 5448 c-200 -52 -349 -197 -402 -393 -18 -67 -19 -127 -19 -1545
-1 -1246 1 -1485 14 -1543 34 -163 164 -320 317 -386 110 -47 34 -45 2099 -46
l1946 0 -1 235 -1 235 -1625 0 -1625 0 -1 90 c-2 144 -35 245 -117 352 -105
139 -272 218 -454 215 l-83 -1 0 839 0 839 89 0 c264 -1 491 176 552 431 14
61 18 161 8 201 l-6 25 2041 0 c2035 -1 2041 -1 2038 -21 -2 -11 -4 -63 -4
-115 -1 -154 49 -276 162 -391 127 -129 319 -189 501 -156 l26 5 1 -551 c0
-304 1 -560 1 -569 1 -17 19 -18 235 -18 l234 0 -1 893 c0 687 -3 906 -13 953
-45 217 -210 380 -434 430 -19 4 -1245 8 -2725 9 -2481 0 -2694 -1 -2753 -17z"/>
<path d="M3097 4704 c-1 -1 -31 -5 -66 -8 -132 -13 -258 -52 -396 -121 -151
-75 -273 -171 -388 -304 -100 -115 -216 -347 -243 -484 -2 -10 -5 -26 -8 -35
-21 -70 -29 -336 -13 -437 43 -266 194 -545 382 -706 22 -19 49 -42 60 -52 68
-62 241 -156 364 -199 247 -84 552 -82 792 7 48 18 211 96 219 105 3 3 25 18
50 34 63 40 176 141 234 206 131 151 226 343 272 552 18 83 27 318 14 393 -5
28 -12 68 -15 90 -21 129 -118 344 -215 474 -55 73 -153 175 -215 222 -16 13
-32 26 -35 29 -3 3 -34 24 -70 47 -131 83 -302 148 -459 174 -58 9 -257 19
-264 13z m205 -321 c10 -9 14 -33 13 -90 -2 -84 6 -113 31 -113 26 0 137 -58
170 -88 68 -64 116 -157 129 -255 11 -77 -4 -81 -235 -78 -59 1 -80 15 -80 57
0 33 -25 86 -55 114 -21 20 -36 24 -86 25 -56 0 -63 -3 -89 -32 -54 -60 -50
-174 8 -228 15 -14 65 -44 112 -66 231 -110 323 -171 371 -247 41 -65 53 -113
52 -212 -1 -114 -28 -184 -96 -252 -51 -51 -153 -108 -194 -108 -31 0 -36 -13
-37 -106 -1 -45 -5 -86 -9 -90 -4 -5 -46 -9 -92 -10 -63 -1 -88 2 -97 13 -7 9
-12 48 -12 96 l-1 81 -62 13 c-140 28 -271 129 -311 240 -30 80 -37 153 -19
177 12 16 30 19 143 21 73 2 134 -1 141 -7 7 -5 17 -35 24 -66 14 -68 67 -127
125 -138 50 -9 112 1 136 23 47 41 62 135 32 198 -22 48 -66 78 -204 139 -289
130 -372 231 -364 442 4 89 37 167 98 230 54 56 148 107 217 119 21 4 40 10
40 13 1 4 3 45 4 91 2 64 6 87 18 96 21 15 160 13 179 -2z"/>
<path d="M1375 3829 c-233 -31 -364 -304 -240 -499 135 -211 434 -217 563 -12
39 61 52 106 54 178 3 105 -47 207 -131 268 -77 57 -154 77 -246 65z"/>
<path d="M4877 3829 c-112 -17 -205 -89 -255 -198 -21 -45 -26 -71 -26 -132 0
-65 4 -85 32 -142 125 -254 474 -252 600 3 24 48 27 67 26 145 -1 104 -17 147
-87 222 -72 79 -183 117 -290 102z"/>
<path d="M5234 3032 c-12 -2 -30 -12 -40 -23 -15 -17 -18 -40 -19 -157 -1
-145 6 -186 35 -202 12 -6 339 -10 884 -10 l865 0 20 26 c19 24 21 40 21 176
0 145 -1 150 -24 171 l-24 21 -849 1 c-466 0 -858 -1 -869 -3z"/>
<path d="M4916 2479 c-60 -10 -65 -25 -66 -196 0 -144 1 -153 22 -173 15 -14
35 -20 65 -20 24 0 315 0 648 0 1149 0 1040 -2 1066 18 22 18 23 25 24 173 1
147 0 155 -22 177 -12 12 -35 22 -50 23 -214 4 -1660 2 -1687 -2z"/>
<path d="M4549 1911 c-23 -18 -24 -25 -26 -163 -2 -153 5 -193 41 -205 31 -11
1695 -12 1732 -1 45 13 53 42 52 202 0 132 -1 140 -23 162 l-24 24 -864 0
c-837 0 -866 -1 -888 -19z"/>
</g>
</svg>
